<mxfile host="app.diagrams.net" modified="2021-03-16T12:39:56.255Z" agent="5.0 (Windows)" etag="jJ67ghMKqQjAc1BX72sy" version="14.4.8" type="github">
  <diagram name="Page-1" id="c37626ed-c26b-45fb-9056-f9ebc6bb27b6">
    <mxGraphModel dx="1730" dy="912" grid="1" gridSize="10" guides="1" tooltips="1" connect="1" arrows="1" fold="1" page="1" pageScale="1" pageWidth="1100" pageHeight="850" background="#ffffff" math="0" shadow="0">
      <root>
        <mxCell id="0" />
        <mxCell id="1" parent="0" />
        <mxCell id="1c7a67bf8fd3230f-83" value="Group 1" style="whiteSpace=wrap;html=1;rounded=0;shadow=0;comic=0;strokeWidth=1;fontFamily=Verdana;fontSize=14;fillColor=#f5f5f5;strokeColor=none;verticalAlign=top;fontStyle=1" parent="1" vertex="1">
          <mxGeometry x="720" y="246" width="730" height="440" as="geometry" />
        </mxCell>
        <mxCell id="1c7a67bf8fd3230f-82" value="业务VPC3" style="whiteSpace=wrap;html=1;rounded=0;shadow=0;comic=0;strokeWidth=1;fontFamily=Verdana;fontSize=14;fillColor=#f5f5f5;strokeColor=none;fontStyle=1;verticalAlign=top;" parent="1" vertex="1">
          <mxGeometry x="1370" y="839" width="370" height="441" as="geometry" />
        </mxCell>
        <mxCell id="1c7a67bf8fd3230f-81" value="&lt;div&gt;业务VPC2&lt;/div&gt;" style="whiteSpace=wrap;html=1;rounded=0;shadow=0;comic=0;strokeWidth=1;fontFamily=Verdana;fontSize=14;fillColor=#f5f5f5;strokeColor=none;fontStyle=1;verticalAlign=top;" parent="1" vertex="1">
          <mxGeometry x="910" y="839" width="432" height="441" as="geometry" />
        </mxCell>
        <mxCell id="1c7a67bf8fd3230f-80" value="业务VPC1" style="whiteSpace=wrap;html=1;rounded=0;shadow=0;comic=0;strokeWidth=1;fontFamily=Verdana;fontSize=14;fillColor=#f5f5f5;strokeColor=none;fontStyle=1;verticalAlign=top;" parent="1" vertex="1">
          <mxGeometry x="506" y="839" width="384" height="441" as="geometry" />
        </mxCell>
        <mxCell id="1c7a67bf8fd3230f-38" style="edgeStyle=none;html=1;labelBackgroundColor=none;startFill=0;endArrow=none;endFill=0;strokeWidth=2;fontFamily=Verdana;fontSize=12;" parent="1" source="5hQp6zJ6rx_YkQlmQhCc-2" target="1c7a67bf8fd3230f-5" edge="1">
          <mxGeometry relative="1" as="geometry" />
        </mxCell>
        <mxCell id="5hQp6zJ6rx_YkQlmQhCc-8" style="edgeStyle=none;rounded=0;orthogonalLoop=1;jettySize=auto;html=1;exitX=1;exitY=0.5;exitDx=0;exitDy=0;exitPerimeter=0;" edge="1" parent="1" source="1c7a67bf8fd3230f-5" target="5hQp6zJ6rx_YkQlmQhCc-4">
          <mxGeometry relative="1" as="geometry" />
        </mxCell>
        <mxCell id="1c7a67bf8fd3230f-5" value="" style="shape=mxgraph.cisco.misc.route_switch_processor;html=1;dashed=0;fillColor=#036897;strokeColor=#ffffff;strokeWidth=2;verticalLabelPosition=bottom;verticalAlign=top;rounded=0;shadow=0;comic=0;fontFamily=Verdana;fontSize=12;" parent="1" vertex="1">
          <mxGeometry x="998.5" y="600" width="64" height="86" as="geometry" />
        </mxCell>
        <mxCell id="1c7a67bf8fd3230f-51" style="edgeStyle=none;html=1;labelBackgroundColor=none;startFill=0;endArrow=none;endFill=0;strokeWidth=2;fontFamily=Verdana;fontSize=12;" parent="1" source="1c7a67bf8fd3230f-10" target="1c7a67bf8fd3230f-48" edge="1">
          <mxGeometry relative="1" as="geometry" />
        </mxCell>
        <mxCell id="5hQp6zJ6rx_YkQlmQhCc-6" style="rounded=0;orthogonalLoop=1;jettySize=auto;html=1;exitX=1;exitY=0.5;exitDx=0;exitDy=0;exitPerimeter=0;" edge="1" parent="1" source="1c7a67bf8fd3230f-10" target="5hQp6zJ6rx_YkQlmQhCc-4">
          <mxGeometry relative="1" as="geometry" />
        </mxCell>
        <mxCell id="1c7a67bf8fd3230f-10" value="" style="shape=mxgraph.cisco.security.ios_firewall;html=1;dashed=0;fillColor=#036897;strokeColor=#ffffff;strokeWidth=2;verticalLabelPosition=bottom;verticalAlign=top;rounded=0;shadow=0;comic=0;fontFamily=Verdana;fontSize=12;" parent="1" vertex="1">
          <mxGeometry x="987.25" y="400" width="89.5" height="66" as="geometry" />
        </mxCell>
        <mxCell id="1c7a67bf8fd3230f-56" style="edgeStyle=none;html=1;labelBackgroundColor=none;startFill=0;endArrow=none;endFill=0;strokeWidth=2;fontFamily=Verdana;fontSize=12;entryX=0.5;entryY=0;entryDx=0;entryDy=0;entryPerimeter=0;exitX=0.326;exitY=1.043;exitDx=0;exitDy=0;exitPerimeter=0;" parent="1" source="1c7a67bf8fd3230f-5" target="5hQp6zJ6rx_YkQlmQhCc-9" edge="1">
          <mxGeometry relative="1" as="geometry">
            <mxPoint x="878.5478204538631" y="775.2646155867567" as="sourcePoint" />
            <mxPoint x="730" y="896.8156224243548" as="targetPoint" />
          </mxGeometry>
        </mxCell>
        <mxCell id="1c7a67bf8fd3230f-57" style="edgeStyle=none;html=1;labelBackgroundColor=none;startFill=0;endArrow=none;endFill=0;strokeWidth=2;fontFamily=Verdana;fontSize=12;exitX=0.5;exitY=1;exitDx=0;exitDy=0;exitPerimeter=0;" parent="1" source="1c7a67bf8fd3230f-5" edge="1">
          <mxGeometry relative="1" as="geometry">
            <mxPoint x="1175.6660240351862" y="775.984576844477" as="sourcePoint" />
            <mxPoint x="1140.526632564624" y="880.0000000000002" as="targetPoint" />
          </mxGeometry>
        </mxCell>
        <mxCell id="1c7a67bf8fd3230f-63" style="edgeStyle=none;html=1;labelBackgroundColor=none;startFill=0;endArrow=none;endFill=0;strokeWidth=2;fontFamily=Verdana;fontSize=12;entryX=0.5;entryY=0;entryDx=0;entryDy=0;entryPerimeter=0;exitX=0.742;exitY=1.081;exitDx=0;exitDy=0;exitPerimeter=0;" parent="1" source="1c7a67bf8fd3230f-5" target="5hQp6zJ6rx_YkQlmQhCc-12" edge="1">
          <mxGeometry relative="1" as="geometry">
            <mxPoint x="1220.2608302301137" y="761.4727356330375" as="sourcePoint" />
            <mxPoint x="1522" y="907.5122391138364" as="targetPoint" />
          </mxGeometry>
        </mxCell>
        <mxCell id="1c7a67bf8fd3230f-15" value="Internet" style="ellipse;shape=cloud;whiteSpace=wrap;html=1;rounded=0;shadow=0;comic=0;strokeWidth=1;fontFamily=Verdana;fontSize=12;" parent="1" vertex="1">
          <mxGeometry x="908.5" y="120" width="241" height="80" as="geometry" />
        </mxCell>
        <mxCell id="1c7a67bf8fd3230f-66" style="edgeStyle=none;html=1;labelBackgroundColor=none;startFill=0;endArrow=none;endFill=0;strokeWidth=2;fontFamily=Verdana;fontSize=12;" parent="1" target="5hQp6zJ6rx_YkQlmQhCc-21" edge="1">
          <mxGeometry relative="1" as="geometry">
            <mxPoint x="700" y="960" as="sourcePoint" />
            <mxPoint x="764" y="1001.7959183673468" as="targetPoint" />
          </mxGeometry>
        </mxCell>
        <mxCell id="1c7a67bf8fd3230f-60" style="edgeStyle=none;html=1;labelBackgroundColor=none;startFill=0;endArrow=none;endFill=0;strokeWidth=2;fontFamily=Verdana;fontSize=12;exitX=0.5;exitY=1;exitDx=0;exitDy=0;exitPerimeter=0;entryX=0.5;entryY=0;entryDx=0;entryDy=0;entryPerimeter=0;" parent="1" source="5hQp6zJ6rx_YkQlmQhCc-11" target="5hQp6zJ6rx_YkQlmQhCc-24" edge="1">
          <mxGeometry relative="1" as="geometry">
            <mxPoint x="1153.0866141732286" y="966" as="sourcePoint" />
            <mxPoint x="1178.913385826772" y="1006.9999999999998" as="targetPoint" />
          </mxGeometry>
        </mxCell>
        <mxCell id="1c7a67bf8fd3230f-69" style="edgeStyle=none;html=1;labelBackgroundColor=none;startFill=0;endArrow=none;endFill=0;strokeWidth=2;fontFamily=Verdana;fontSize=12;exitX=0.5;exitY=1;exitDx=0;exitDy=0;exitPerimeter=0;entryX=0.5;entryY=0;entryDx=0;entryDy=0;entryPerimeter=0;" parent="1" source="5hQp6zJ6rx_YkQlmQhCc-11" target="5hQp6zJ6rx_YkQlmQhCc-20" edge="1">
          <mxGeometry relative="1" as="geometry">
            <mxPoint x="1094" y="950.0033222591364" as="sourcePoint" />
            <mxPoint x="1003.9409448818897" y="1026" as="targetPoint" />
          </mxGeometry>
        </mxCell>
        <mxCell id="1c7a67bf8fd3230f-70" style="edgeStyle=none;html=1;labelBackgroundColor=none;startFill=0;endArrow=none;endFill=0;strokeWidth=2;fontFamily=Verdana;fontSize=12;exitX=0.5;exitY=1;exitDx=0;exitDy=0;exitPerimeter=0;entryX=0.5;entryY=0;entryDx=0;entryDy=0;entryPerimeter=0;" parent="1" source="5hQp6zJ6rx_YkQlmQhCc-11" target="5hQp6zJ6rx_YkQlmQhCc-23" edge="1">
          <mxGeometry relative="1" as="geometry">
            <mxPoint x="1098.5531914893618" y="966" as="sourcePoint" />
            <mxPoint x="996.4255319148938" y="1126" as="targetPoint" />
          </mxGeometry>
        </mxCell>
        <mxCell id="1c7a67bf8fd3230f-59" style="edgeStyle=none;html=1;labelBackgroundColor=none;startFill=0;endArrow=none;endFill=0;strokeWidth=2;fontFamily=Verdana;fontSize=12;entryX=0.5;entryY=0;entryDx=0;entryDy=0;entryPerimeter=0;" parent="1" target="5hQp6zJ6rx_YkQlmQhCc-27" edge="1">
          <mxGeometry relative="1" as="geometry">
            <mxPoint x="1566.8661417322833" y="966" as="sourcePoint" />
            <mxPoint x="1579.1338582677163" y="1006.9999999999998" as="targetPoint" />
          </mxGeometry>
        </mxCell>
        <mxCell id="1c7a67bf8fd3230f-52" style="edgeStyle=none;html=1;labelBackgroundColor=none;startFill=0;endArrow=none;endFill=0;strokeWidth=2;fontFamily=Verdana;fontSize=12;" parent="1" source="1c7a67bf8fd3230f-48" target="1c7a67bf8fd3230f-15" edge="1">
          <mxGeometry relative="1" as="geometry" />
        </mxCell>
        <mxCell id="5hQp6zJ6rx_YkQlmQhCc-5" style="edgeStyle=none;rounded=0;orthogonalLoop=1;jettySize=auto;html=1;exitX=1;exitY=0.5;exitDx=0;exitDy=0;exitPerimeter=0;" edge="1" parent="1" source="1c7a67bf8fd3230f-48" target="5hQp6zJ6rx_YkQlmQhCc-4">
          <mxGeometry relative="1" as="geometry" />
        </mxCell>
        <mxCell id="1c7a67bf8fd3230f-48" value="" style="shape=mxgraph.cisco.routers.router;html=1;dashed=0;fillColor=#036897;strokeColor=#ffffff;strokeWidth=2;verticalLabelPosition=bottom;verticalAlign=top;rounded=0;shadow=0;comic=0;fontFamily=Verdana;fontSize=12;" parent="1" vertex="1">
          <mxGeometry x="990" y="300" width="78" height="53" as="geometry" />
        </mxCell>
        <mxCell id="5hQp6zJ6rx_YkQlmQhCc-7" style="edgeStyle=none;rounded=0;orthogonalLoop=1;jettySize=auto;html=1;exitX=1;exitY=0.5;exitDx=0;exitDy=0;exitPerimeter=0;" edge="1" parent="1" source="5hQp6zJ6rx_YkQlmQhCc-2" target="5hQp6zJ6rx_YkQlmQhCc-4">
          <mxGeometry relative="1" as="geometry" />
        </mxCell>
        <mxCell id="5hQp6zJ6rx_YkQlmQhCc-2" value="" style="points=[[0.015,0.015,0],[0.985,0.015,0],[0.985,0.985,0],[0.015,0.985,0],[0.25,0,0],[0.5,0,0],[0.75,0,0],[1,0.25,0],[1,0.5,0],[1,0.75,0],[0.75,1,0],[0.5,1,0],[0.25,1,0],[0,0.75,0],[0,0.5,0],[0,0.25,0]];verticalLabelPosition=bottom;html=1;verticalAlign=top;aspect=fixed;align=center;pointerEvents=1;shape=mxgraph.cisco19.rect;prIcon=ips_ids;fillColor=#FAFAFA;strokeColor=#005073;" vertex="1" parent="1">
          <mxGeometry x="1000" y="515" width="64" height="50" as="geometry" />
        </mxCell>
        <mxCell id="5hQp6zJ6rx_YkQlmQhCc-3" style="edgeStyle=none;html=1;labelBackgroundColor=none;startFill=0;endArrow=none;endFill=0;strokeWidth=2;fontFamily=Verdana;fontSize=12;exitX=0.5;exitY=1;exitDx=0;exitDy=0;exitPerimeter=0;" edge="1" parent="1" source="1c7a67bf8fd3230f-10" target="5hQp6zJ6rx_YkQlmQhCc-2">
          <mxGeometry relative="1" as="geometry">
            <mxPoint x="1031" y="480" as="sourcePoint" />
            <mxPoint x="1028.001644736842" y="610" as="targetPoint" />
          </mxGeometry>
        </mxCell>
        <mxCell id="5hQp6zJ6rx_YkQlmQhCc-4" value="" style="shape=mxgraph.cisco.servers.server_with_router;html=1;pointerEvents=1;dashed=0;fillColor=#036897;strokeColor=#ffffff;strokeWidth=2;verticalLabelPosition=bottom;verticalAlign=top;align=center;outlineConnect=0;" vertex="1" parent="1">
          <mxGeometry x="1265" y="400" width="70" height="105" as="geometry" />
        </mxCell>
        <mxCell id="5hQp6zJ6rx_YkQlmQhCc-9" value="" style="shape=mxgraph.cisco.security.router_firewall;html=1;pointerEvents=1;dashed=0;fillColor=#036897;strokeColor=#ffffff;strokeWidth=2;verticalLabelPosition=bottom;verticalAlign=top;align=center;outlineConnect=0;" vertex="1" parent="1">
          <mxGeometry x="659" y="892" width="78" height="62" as="geometry" />
        </mxCell>
        <mxCell id="5hQp6zJ6rx_YkQlmQhCc-10" value="" style="shape=mxgraph.cisco.security.router_firewall;html=1;pointerEvents=1;dashed=0;fillColor=#036897;strokeColor=#ffffff;strokeWidth=2;verticalLabelPosition=bottom;verticalAlign=top;align=center;outlineConnect=0;" vertex="1" parent="1">
          <mxGeometry x="659" y="892" width="78" height="62" as="geometry" />
        </mxCell>
        <mxCell id="5hQp6zJ6rx_YkQlmQhCc-11" value="" style="shape=mxgraph.cisco.security.router_firewall;html=1;pointerEvents=1;dashed=0;fillColor=#036897;strokeColor=#ffffff;strokeWidth=2;verticalLabelPosition=bottom;verticalAlign=top;align=center;outlineConnect=0;" vertex="1" parent="1">
          <mxGeometry x="1087" y="892" width="78" height="62" as="geometry" />
        </mxCell>
        <mxCell id="5hQp6zJ6rx_YkQlmQhCc-12" value="" style="shape=mxgraph.cisco.security.router_firewall;html=1;pointerEvents=1;dashed=0;fillColor=#036897;strokeColor=#ffffff;strokeWidth=2;verticalLabelPosition=bottom;verticalAlign=top;align=center;outlineConnect=0;" vertex="1" parent="1">
          <mxGeometry x="1516" y="892" width="78" height="62" as="geometry" />
        </mxCell>
        <mxCell id="5hQp6zJ6rx_YkQlmQhCc-18" value="" style="shape=mxgraph.cisco.servers.standard_host;html=1;pointerEvents=1;dashed=0;fillColor=#036897;strokeColor=#ffffff;strokeWidth=2;verticalLabelPosition=bottom;verticalAlign=top;align=center;outlineConnect=0;" vertex="1" parent="1">
          <mxGeometry x="560" y="1040" width="50" height="72" as="geometry" />
        </mxCell>
        <mxCell id="5hQp6zJ6rx_YkQlmQhCc-19" value="" style="shape=mxgraph.cisco.servers.standard_host;html=1;pointerEvents=1;dashed=0;fillColor=#036897;strokeColor=#ffffff;strokeWidth=2;verticalLabelPosition=bottom;verticalAlign=top;align=center;outlineConnect=0;" vertex="1" parent="1">
          <mxGeometry x="650" y="1153" width="60" height="72" as="geometry" />
        </mxCell>
        <mxCell id="5hQp6zJ6rx_YkQlmQhCc-20" value="" style="shape=mxgraph.cisco.servers.standard_host;html=1;pointerEvents=1;dashed=0;fillColor=#036897;strokeColor=#ffffff;strokeWidth=2;verticalLabelPosition=bottom;verticalAlign=top;align=center;outlineConnect=0;" vertex="1" parent="1">
          <mxGeometry x="940.5" y="1050" width="58" height="72" as="geometry" />
        </mxCell>
        <mxCell id="5hQp6zJ6rx_YkQlmQhCc-21" value="" style="shape=mxgraph.cisco.servers.storage_server;html=1;pointerEvents=1;dashed=0;fillColor=#036897;strokeColor=#ffffff;strokeWidth=2;verticalLabelPosition=bottom;verticalAlign=top;align=center;outlineConnect=0;" vertex="1" parent="1">
          <mxGeometry x="770" y="1068" width="60" height="85" as="geometry" />
        </mxCell>
        <mxCell id="5hQp6zJ6rx_YkQlmQhCc-23" value="" style="shape=mxgraph.cisco.servers.standard_host;html=1;pointerEvents=1;dashed=0;fillColor=#036897;strokeColor=#ffffff;strokeWidth=2;verticalLabelPosition=bottom;verticalAlign=top;align=center;outlineConnect=0;" vertex="1" parent="1">
          <mxGeometry x="1027" y="1153" width="60" height="72" as="geometry" />
        </mxCell>
        <mxCell id="5hQp6zJ6rx_YkQlmQhCc-24" value="" style="shape=mxgraph.cisco.servers.storage_server;html=1;pointerEvents=1;dashed=0;fillColor=#036897;strokeColor=#ffffff;strokeWidth=2;verticalLabelPosition=bottom;verticalAlign=top;align=center;outlineConnect=0;" vertex="1" parent="1">
          <mxGeometry x="1170" y="1068" width="60" height="85" as="geometry" />
        </mxCell>
        <mxCell id="5hQp6zJ6rx_YkQlmQhCc-25" value="" style="shape=mxgraph.cisco.servers.standard_host;html=1;pointerEvents=1;dashed=0;fillColor=#036897;strokeColor=#ffffff;strokeWidth=2;verticalLabelPosition=bottom;verticalAlign=top;align=center;outlineConnect=0;" vertex="1" parent="1">
          <mxGeometry x="1410" y="1050" width="58" height="72" as="geometry" />
        </mxCell>
        <mxCell id="5hQp6zJ6rx_YkQlmQhCc-26" value="" style="shape=mxgraph.cisco.servers.standard_host;html=1;pointerEvents=1;dashed=0;fillColor=#036897;strokeColor=#ffffff;strokeWidth=2;verticalLabelPosition=bottom;verticalAlign=top;align=center;outlineConnect=0;" vertex="1" parent="1">
          <mxGeometry x="1500" y="1153" width="58" height="72" as="geometry" />
        </mxCell>
        <mxCell id="5hQp6zJ6rx_YkQlmQhCc-27" value="" style="shape=mxgraph.cisco.servers.storage_server;html=1;pointerEvents=1;dashed=0;fillColor=#036897;strokeColor=#ffffff;strokeWidth=2;verticalLabelPosition=bottom;verticalAlign=top;align=center;outlineConnect=0;" vertex="1" parent="1">
          <mxGeometry x="1594" y="1033.5" width="60" height="85" as="geometry" />
        </mxCell>
        <mxCell id="5hQp6zJ6rx_YkQlmQhCc-29" style="edgeStyle=none;html=1;labelBackgroundColor=none;startFill=0;endArrow=none;endFill=0;strokeWidth=2;fontFamily=Verdana;fontSize=12;entryX=0.5;entryY=0;entryDx=0;entryDy=0;entryPerimeter=0;exitX=0.5;exitY=1;exitDx=0;exitDy=0;exitPerimeter=0;" edge="1" parent="1" source="5hQp6zJ6rx_YkQlmQhCc-12" target="5hQp6zJ6rx_YkQlmQhCc-26">
          <mxGeometry relative="1" as="geometry">
            <mxPoint x="1515.9961417322834" y="1000.5" as="sourcePoint" />
            <mxPoint x="1573.13" y="1068" as="targetPoint" />
          </mxGeometry>
        </mxCell>
        <mxCell id="5hQp6zJ6rx_YkQlmQhCc-30" style="edgeStyle=none;html=1;labelBackgroundColor=none;startFill=0;endArrow=none;endFill=0;strokeWidth=2;fontFamily=Verdana;fontSize=12;entryX=0.5;entryY=0;entryDx=0;entryDy=0;entryPerimeter=0;exitX=0.5;exitY=1;exitDx=0;exitDy=0;exitPerimeter=0;" edge="1" parent="1" source="5hQp6zJ6rx_YkQlmQhCc-12" target="5hQp6zJ6rx_YkQlmQhCc-25">
          <mxGeometry relative="1" as="geometry">
            <mxPoint x="1576.8661417322833" y="976" as="sourcePoint" />
            <mxPoint x="1634" y="1043.5" as="targetPoint" />
          </mxGeometry>
        </mxCell>
        <mxCell id="5hQp6zJ6rx_YkQlmQhCc-31" style="edgeStyle=none;html=1;labelBackgroundColor=none;startFill=0;endArrow=none;endFill=0;strokeWidth=2;fontFamily=Verdana;fontSize=12;entryX=0.5;entryY=0;entryDx=0;entryDy=0;entryPerimeter=0;exitX=0.5;exitY=1;exitDx=0;exitDy=0;exitPerimeter=0;" edge="1" parent="1" source="5hQp6zJ6rx_YkQlmQhCc-10" target="5hQp6zJ6rx_YkQlmQhCc-18">
          <mxGeometry relative="1" as="geometry">
            <mxPoint x="619.9961417322833" y="966" as="sourcePoint" />
            <mxPoint x="677.13" y="1033.5" as="targetPoint" />
          </mxGeometry>
        </mxCell>
        <mxCell id="5hQp6zJ6rx_YkQlmQhCc-32" style="edgeStyle=none;html=1;labelBackgroundColor=none;startFill=0;endArrow=none;endFill=0;strokeWidth=2;fontFamily=Verdana;fontSize=12;entryX=0.5;entryY=0;entryDx=0;entryDy=0;entryPerimeter=0;" edge="1" parent="1" source="5hQp6zJ6rx_YkQlmQhCc-10" target="5hQp6zJ6rx_YkQlmQhCc-19">
          <mxGeometry relative="1" as="geometry">
            <mxPoint x="619.9961417322834" y="966" as="sourcePoint" />
            <mxPoint x="677.1300000000001" y="1033.5" as="targetPoint" />
          </mxGeometry>
        </mxCell>
      </root>
    </mxGraphModel>
  </diagram>
</mxfile>
